<svg width="117" height="34" viewBox="0 0 117 34" fill="none" xmlns="http://www.w3.org/2000/svg">
<g id="Frame" clip-path="url(#clip0_2_5)">
<path id="Vector" d="M8.86844 3.71573L14.109 0.689331C14.2583 0.603231 14.4434 0.603231 14.5926 0.689331L28.4044 8.66358C28.5537 8.74968 28.6455 8.90897 28.6469 9.08116L28.6656 14.5657C28.6656 14.7393 28.5737 14.9001 28.4231 14.9862L23.1897 18.0082C22.8682 18.1948 22.465 17.9623 22.4636 17.5907L22.4463 12.6686C22.4463 12.4964 22.3531 12.3372 22.2038 12.2511L8.86844 4.55376C8.54556 4.36722 8.54556 3.90228 8.86844 3.71573Z" fill="#010101"/>
<path id="Vector_2" d="M5.48167 28.5583L0.242514 25.5334C0.0918395 25.4473 0 25.288 0 25.1144V9.16585C0 8.99365 0.0918395 8.83437 0.241079 8.74683L4.98229 5.98734C5.13297 5.89981 5.31808 5.89981 5.46732 5.98734L10.7007 9.00944C11.0222 9.19598 11.0236 9.65949 10.7022 9.84747L6.44885 12.3228C6.29962 12.4089 6.20778 12.5682 6.20778 12.7418V28.1408C6.20778 28.5138 5.80454 28.7463 5.48167 28.5598V28.5583Z" fill="#010101"/>
<path id="Vector_3" d="M28.6684 19.0629V25.1128C28.6684 25.2864 28.5766 25.4457 28.4259 25.5318L14.6141 33.5061C14.4648 33.5922 14.2812 33.5922 14.1319 33.5061L9.37206 30.7796C9.22139 30.6935 9.12811 30.5328 9.12811 30.3591V24.3164C9.12811 23.9447 9.52991 23.7122 9.85278 23.8959L14.1233 26.3426C14.2726 26.4287 14.4562 26.4273 14.6055 26.3426L27.9409 18.6424C28.2637 18.4559 28.667 18.6883 28.667 19.0614L28.6684 19.0629Z" fill="#010101"/>
<g id="Group">
<path id="Vector_4" d="M73.4552 8.94349H68.1056C67.8731 8.94349 67.6866 9.13148 67.6866 9.36395V19.5395C67.6866 20.841 67.4756 21.9302 67.0523 22.8055C66.629 23.655 66.0478 24.2922 65.3074 24.7169C64.5669 25.1144 63.7203 25.3153 62.7689 25.3153C61.3927 25.3153 60.3222 24.9035 59.5559 24.0812C58.8155 23.2317 58.4452 21.9158 58.4452 20.1379V9.36538C58.4452 9.13291 58.2572 8.94493 58.0262 8.94493H54.1403C54.1087 8.93919 54.0771 8.93632 54.0455 8.93632H46.3052V8.50582C46.3052 7.46976 46.5434 6.7006 47.0198 6.19548C47.5221 5.66454 48.2238 5.39906 49.1221 5.39906C49.5985 5.39906 50.0477 5.46507 50.471 5.59853C50.7322 5.68176 50.989 5.78938 51.2114 5.90705C51.4339 6.02472 51.7094 5.91279 51.794 5.67458L53.1315 1.97374C53.2003 1.78145 53.1228 1.5662 52.9463 1.46431C52.424 1.16153 51.8113 0.933368 51.1052 0.778388C50.2859 0.593275 49.4263 0.5 48.5266 0.5C45.8833 0.5 43.8471 1.23041 42.4178 2.69123C40.99 4.12479 40.2754 6.05055 40.2754 8.46708V8.93632H37.48C37.2059 8.93632 36.9821 9.1243 36.9821 9.35677V13.2944C36.9821 13.5269 37.2045 13.7148 37.48 13.7148H40.2754V29.9518C40.2754 30.1842 40.4633 30.3722 40.6944 30.3722H46.0426C46.2736 30.3722 46.4616 30.1842 46.4616 29.9518V13.7148H52.2561V21.052C52.2561 23.2561 52.6393 25.0757 53.407 26.5092C54.1747 27.917 55.2452 28.9659 56.6199 29.6562C58.0219 30.3464 59.609 30.6922 61.3798 30.6922C63.02 30.6922 64.5267 30.3206 65.9015 29.5758C66.7194 29.1267 67.4197 28.5527 68.0037 27.8581V29.9518C68.0037 30.1842 68.1917 30.3722 68.4227 30.3722H73.4552C73.6877 30.3722 73.8743 30.1842 73.8743 29.9518V9.36538C73.8743 9.13291 73.6863 8.94493 73.4552 8.94493V8.94349Z" fill="#010101"/>
<path id="Vector_5" d="M91.4625 19.1392C90.7221 18.6872 89.8883 18.3428 88.9628 18.1031C88.0386 17.8649 87.1116 17.6913 86.186 17.5851C85.2877 17.4516 84.454 17.3067 83.6863 17.1474C82.92 16.9881 82.2972 16.7758 81.8222 16.5103C81.3717 16.2448 81.1478 15.8473 81.1478 15.3149C81.1478 14.7309 81.4649 14.253 82.1006 13.8814C82.7349 13.5097 83.7408 13.3246 85.1155 13.3246C86.0942 13.3246 87.0987 13.4437 88.1305 13.6833C89.056 13.8685 89.9701 14.2071 90.8756 14.6979C91.0894 14.8127 91.3534 14.728 91.4568 14.5085L93.1644 10.8492C93.2577 10.6498 93.1816 10.4087 92.9893 10.3039C92.0451 9.78878 90.9029 9.38841 89.5597 9.10572C88.053 8.78715 86.5721 8.62787 85.117 8.62787C83.0549 8.62787 81.2827 8.93352 79.8018 9.54339C78.3209 10.1289 77.1843 10.9382 76.3908 11.9743C75.6245 13.0103 75.2399 14.2042 75.2399 15.5589C75.2399 16.7801 75.4652 17.7759 75.9144 18.5465C76.3908 19.3157 77.0121 19.927 77.7784 20.379C78.5462 20.831 79.3914 21.1754 80.3169 21.4151C81.2425 21.6275 82.1551 21.7997 83.0535 21.9331C83.979 22.0666 84.8257 22.1986 85.592 22.3306C86.3582 22.4641 86.9667 22.6635 87.4173 22.929C87.8937 23.1686 88.1319 23.5403 88.1319 24.044C88.1319 24.6553 87.8277 25.1331 87.2192 25.4775C86.6381 25.8219 85.6321 25.9956 84.2043 25.9956C82.9085 25.9956 81.5869 25.8105 80.238 25.4388C79.0886 25.093 78.0697 24.6668 77.18 24.1602C76.9662 24.0382 76.695 24.1243 76.5917 24.3482L74.8783 28.0548C74.7879 28.25 74.8611 28.481 75.0433 28.5929C75.9832 29.1669 77.1987 29.6562 78.6896 30.0595C80.3815 30.4842 82.1408 30.6966 83.9647 30.6966V30.6937C86.1057 30.6937 87.9181 30.4024 89.399 29.8184C90.9057 29.2344 92.0566 28.4379 92.8501 27.4291C93.6437 26.3945 94.0398 25.2121 94.0398 23.8847C94.0398 22.6635 93.8015 21.6806 93.3251 20.9372C92.8487 20.1666 92.2274 19.5697 91.4611 19.1449L91.4625 19.1392Z" fill="#010101"/>
<path id="Vector_6" d="M115.474 13.8054C114.496 12.1322 113.161 10.8579 111.468 9.98116C109.802 9.07855 108.004 8.62653 105.835 8.62653C103.667 8.62653 101.723 9.10438 100.005 10.0601C98.286 10.9885 96.9242 12.2901 95.9197 13.9633C94.941 15.6092 94.4517 17.535 94.4517 19.6587C94.4517 21.7825 94.9539 23.6825 95.9584 25.3542C96.9629 27.0002 98.3778 28.3017 100.202 29.2574C102.053 30.2131 104.194 30.691 106.628 30.691V30.6938C108.559 30.6938 110.265 30.4011 111.745 29.8185C113.095 29.2617 114.236 28.494 115.169 27.5182C115.321 27.3589 115.321 27.1064 115.172 26.9428L112.424 23.9508C112.269 23.7829 112.01 23.7714 111.837 23.9221C111.204 24.4746 110.512 24.8993 109.76 25.1964C108.914 25.5408 107.922 25.7144 106.785 25.7144C105.517 25.7144 104.406 25.4891 103.453 25.0371C102.528 24.5592 101.8 23.8819 101.272 23.0066C100.998 22.5158 100.803 21.9834 100.678 21.4123H116.441C116.657 21.4123 116.838 21.2473 116.858 21.032C116.872 20.8842 116.886 20.7307 116.899 20.5757C116.927 20.2571 116.939 19.9788 116.939 19.7391C116.939 17.4288 116.45 15.4513 115.471 13.804L115.474 13.8054ZM103.059 14.0451C103.878 13.5672 104.818 13.3276 105.876 13.3276C106.933 13.3276 107.859 13.5672 108.652 14.0451C109.446 14.4956 110.067 15.1342 110.516 15.9565C110.815 16.5018 111.011 17.1131 111.112 17.7875H100.606C100.71 17.1245 100.905 16.5262 101.195 15.9952C101.645 15.1457 102.265 14.4956 103.059 14.0436V14.0451Z" fill="#010101"/>
</g>
</g>
<defs>
<clipPath id="clip0_2_5">
<rect width="116.936" height="33.0723" fill="white" transform="translate(0 0.5)"/>
</clipPath>
</defs>
</svg>
